# xmcd
#
# Track frame offsets: 
#        182
#        12695
#        24482
#        41782
#        57295
#        70595
#        83982
#        95795
#        108170
#        123832
#        135507
#        147845
#        165520
#        178707
#        191145
#        201507
#        211107
#        229095
#        241282
#        254745
#
# Disc length: 3603 seconds
#
# Revision: 2
# Processed by: cddbd v1.5.2PL0 Copyright (c) Steve Scherf et al.
# Submitted via: ExactAudioCopy v1.0b4
#
DISCID=220e1114
DTITLE=Various Artist - Greatest Country Collection CD 2
DYEAR=1995
DGENRE=Country
TTITLE0=Nancy Sinatra and Lee Hazlewood - Jackson
TTITLE1=The Everly Brothers - Let It Be Me
TTITLE2=Don McClean - Crying
TTITLE3=Anny Schilder - High Noon
TTITLE4=Hank Locklin - Please Help Me I'm Falling
TTITLE5=Jimmy Dean - Big Bad John
TTITLE6=Timi Yuro - All Alone Am I
TTITLE7=The Oakridge Boys - The Old Country Church
TTITLE8=Hammond and West - To All The Girls I Loved Before
TTITLE9=Marie Williams - Don't Make My Brown Eyes Blue
TTITLE10=Johnny Cash - I Walk The Line
TTITLE11=The Walkers - Oh Lonesome Me
TTITLE12=Ray Charles - Crying Time
TTITLE13=Dolly Parton - Makin' Believe
TTITLE14=Ricky Nelson - Hello Mary Lou
TTITLE15=Alabama - My Sweet Country Home
TTITLE16=Willie Nelson - Nothing's Changed Nothing's New
TTITLE17=Nancy Sinatra - These Boots Are Made For Walkin'
TTITLE18=Sommerset - Almost Persuaded
TTITLE19=Anne Murray - There Goes My Everything
EXTD=
EXTT0=
EXTT1=
EXTT2=
EXTT3=
EXTT4=
EXTT5=
EXTT6=
EXTT7=
EXTT8=
EXTT9=
EXTT10=
EXTT11=
EXTT12=
EXTT13=
EXTT14=
EXTT15=
EXTT16=
EXTT17=
EXTT18=
EXTT19=
PLAYORDER=
